<svg width="1280" height="420" viewBox="0 0 1280 420" fill="none" xmlns="http://www.w3.org/2000/svg" role="img" aria-label="Trace Storyboard project cover">
  <rect width="1280" height="420" rx="30" fill="#111827"/>
  <path d="M0 332C168 286 293 306 420 336C560 369 699 376 853 325C1018 270 1148 277 1280 320V420H0V332Z" fill="#4f46e5" opacity=".16"/>
  <path d="M86 84h560" stroke="#4f46e5" stroke-width="10" stroke-linecap="round"/>
  <text x="86" y="176" fill="#f8fafc" font-family="Inter, ui-sans-serif, system-ui" font-size="62" font-weight="800">Trace Storyboard</text>
  <text x="90" y="237" fill="#c7d2fe" font-family="Inter, ui-sans-serif, system-ui" font-size="24" font-weight="500">Turn agent trace JSONL into readable...</text>
  <rect x="90" y="288" width="223" height="46" rx="23" fill="#4f46e5" opacity=".20"/>
  <text x="118" y="319" fill="#f8fafc" font-family="Inter, ui-sans-serif, system-ui" font-size="18" font-weight="800" letter-spacing="1">TRACE PRIVACY</text>

  <path d="M794 104h94v94h-94zM916 104h94v94h-94zM1038 104h94v94h-94zM855 226h94v94h-94zM977 226h94v94h-94z" fill="none" stroke="#4f46e5" stroke-width="12"/>
  <path d="M840 151h246M902 273h122" stroke="#06b6d4" stroke-width="10" stroke-linecap="round"/>
</svg>
